<svg width="123" height="26" viewBox="0 0 123 26" fill="none" xmlns="http://www.w3.org/2000/svg">
<path d="M13.1734 24.9517L12.1934 19.6317H6.80344L5.85844 24.9517H0.398438L6.27844 0.696655H12.8584L18.7384 24.9517H13.1734ZM7.53844 15.6767H11.4934L9.49844 4.72166L7.53844 15.6767Z" fill="#FF0404"/>
<path d="M26.9235 0.696655V20.6117H34.5535L33.9935 24.9517H21.4285V0.696655H26.9235Z" fill="#FF0404"/>
<path d="M43.2259 0.696655V24.9517H37.7309V0.696655H43.2259ZM54.9159 0.696655L48.8959 11.6167L55.4409 24.9517H49.4559L43.4009 12.0017L49.4909 0.696655H54.9159Z" fill="#FF0404"/>
<path d="M63.5272 0.696655V24.9517H58.0322V0.696655H63.5272ZM75.2172 0.696655L69.1972 11.6167L75.7422 24.9517H69.7572L63.7022 12.0017L69.7922 0.696655H75.2172Z" fill="#FF0404"/>
<path d="M80.5736 19.4217C81.4369 19.4217 82.1486 19.725 82.7086 20.3317C83.2686 20.9383 83.5486 21.6617 83.5486 22.5017C83.5486 23.3417 83.2686 24.065 82.7086 24.6717C82.1486 25.255 81.4369 25.5467 80.5736 25.5467C79.6869 25.5467 78.9636 25.255 78.4036 24.6717C77.8669 24.065 77.5986 23.3417 77.5986 22.5017C77.5986 21.6617 77.8669 20.9383 78.4036 20.3317C78.9636 19.725 79.6869 19.4217 80.5736 19.4217Z" fill="#FF0404"/>
<path d="M98.379 24.9517L94.424 15.6067H94.249H92.919V24.9517H87.424V0.696655H93.899C99.919 0.696655 102.929 3.14666 102.929 8.04666C102.929 9.46999 102.626 10.7533 102.019 11.8967C101.436 13.04 100.514 13.9267 99.254 14.5567L104.224 24.9517H98.379ZM94.039 11.7917C95.2057 11.7917 96.0457 11.5 96.559 10.9167C97.0724 10.31 97.329 9.35332 97.329 8.04666C97.329 6.85666 97.049 5.98166 96.489 5.42166C95.9524 4.86166 95.0774 4.58166 93.864 4.58166H92.919V11.7917H94.039Z" fill="#FF0404"/>
<path d="M122.487 17.9517C122.487 19.3983 122.184 20.6933 121.577 21.8367C120.971 22.9567 120.061 23.855 118.847 24.5317C117.634 25.185 116.141 25.5117 114.367 25.5117C111.707 25.5117 109.689 24.8233 108.312 23.4467C106.936 22.07 106.247 20.2383 106.247 17.9517V0.696655H111.742V17.7067C111.742 18.9667 111.941 19.9 112.337 20.5067C112.757 21.1133 113.434 21.4167 114.367 21.4167C115.301 21.4167 115.966 21.1133 116.362 20.5067C116.782 19.9 116.992 18.9667 116.992 17.7067V0.696655H122.487V17.9517Z" fill="#FF0404"/>
</svg>
