<svg width="20" height="20" viewBox="0 0 20 20" fill="none" xmlns="http://www.w3.org/2000/svg">
<path d="M17.4639 1.9475C16.9678 1.49053 14.9603 0.033679 10.4843 0.0141502C10.4843 0.0141502 5.20759 -0.302216 2.63761 2.05686C1.2081 3.48637 0.704255 5.58376 0.649574 8.18109C0.594893 10.7784 0.528495 15.645 5.21931 16.9651H5.22322L5.21931 18.9805C5.21931 18.9805 5.18807 19.7968 5.72706 19.9609C6.37542 20.164 6.75818 19.5429 7.3792 18.8751C7.719 18.5079 8.18769 17.9689 8.54311 17.5588C11.7536 17.8283 14.2182 17.2112 14.4994 17.1214C15.1478 16.9105 18.8153 16.4418 19.4089 11.5752C20.026 6.55239 19.1121 3.38091 17.4639 1.9475ZM18.0068 11.2081C17.5029 15.27 14.5306 15.5278 13.9838 15.7036C13.7495 15.7778 11.5818 16.3168 8.85948 16.141C8.85948 16.141 6.82848 18.5899 6.19575 19.2266C5.98875 19.4336 5.76221 19.4141 5.76612 19.004C5.76612 18.7345 5.78174 15.6567 5.78174 15.6567C5.77784 15.6567 5.77784 15.6567 5.78174 15.6567C1.80568 14.5553 2.04002 10.4113 2.08299 8.24359C2.12595 6.07589 2.53606 4.29877 3.74684 3.10361C5.92235 1.1312 10.4023 1.42413 10.4023 1.42413C14.1869 1.43975 15.9992 2.58023 16.421 2.963C17.8154 4.15816 18.5262 7.01718 18.0068 11.2081ZM12.5778 8.0522C12.5934 8.3881 12.0895 8.41153 12.0739 8.07564C12.031 7.21637 11.6287 6.79845 10.8006 6.75159C10.4647 6.73206 10.496 6.22821 10.828 6.24774C11.9177 6.30633 12.5231 6.93125 12.5778 8.0522ZM13.3706 8.49355C13.4097 6.83751 12.3747 5.5408 10.4101 5.39629C10.0781 5.37285 10.1132 4.86901 10.4452 4.89244C12.7106 5.05649 13.9174 6.61488 13.8745 8.50527C13.8706 8.84117 13.3628 8.82554 13.3706 8.49355ZM15.2063 9.01693C15.2102 9.35282 14.7025 9.35673 14.7025 9.02083C14.6791 5.83764 12.5582 4.10348 9.98434 4.08395C9.65235 4.08005 9.65235 3.58011 9.98434 3.58011C12.8629 3.59964 15.179 5.58767 15.2063 9.01693ZM14.765 12.8485V12.8563C14.3432 13.5984 13.5542 14.4186 12.7418 14.1569L12.734 14.1452C11.9099 13.9147 9.96871 12.9149 8.74231 11.9384C8.10957 11.4385 7.53152 10.8487 7.08626 10.2824C6.68397 9.77855 6.27777 9.18097 5.88329 8.46231C5.05136 6.95859 4.86779 6.2868 4.86779 6.2868C4.60611 5.4744 5.42241 4.68544 6.16841 4.26362H6.17622C6.53555 4.07614 6.87926 4.13863 7.1097 4.41594C7.1097 4.41594 7.59401 4.99399 7.80102 5.27911C7.99631 5.54471 8.25799 5.97043 8.39469 6.20868C8.63295 6.63441 8.48453 7.06795 8.25018 7.24762L7.78149 7.62257C7.54324 7.81395 7.57448 8.16938 7.57448 8.16938C7.57448 8.16938 8.26971 10.798 10.867 11.4619C10.867 11.4619 11.2225 11.4932 11.4138 11.2549L11.7888 10.7862C11.9685 10.5519 12.402 10.4035 12.8277 10.6417C13.4019 10.9659 14.1323 11.4697 14.6166 11.9267C14.89 12.1493 14.9525 12.4891 14.765 12.8485Z" fill="#8D97F0"/>
</svg>
