<svg width="19" height="19" viewBox="0 0 19 19" fill="none" xmlns="http://www.w3.org/2000/svg">
<path d="M16.1542 2.76094C14.3772 0.979687 12.0107 0 9.49576 0C4.30469 0 0.0805804 4.22411 0.0805804 9.41518C0.0805804 11.0734 0.51317 12.6935 1.33594 14.1228L0 19L4.99174 17.6895C6.36585 18.4402 7.91384 18.8346 9.49152 18.8346H9.49576C14.6826 18.8346 19 14.6105 19 9.41942C19 6.90446 17.9313 4.54219 16.1542 2.76094ZM9.49576 17.2484C8.08772 17.2484 6.70938 16.871 5.50915 16.1585L5.225 15.9888L2.26473 16.765L3.05357 13.8768L2.86696 13.5799C2.08237 12.333 1.67098 10.8953 1.67098 9.41518C1.67098 5.10201 5.18259 1.5904 9.5 1.5904C11.5908 1.5904 13.5545 2.40469 15.0304 3.88482C16.5063 5.36495 17.4138 7.32857 17.4096 9.41942C17.4096 13.7368 13.8089 17.2484 9.49576 17.2484ZM13.7877 11.3873C13.5545 11.2685 12.3967 10.7002 12.1804 10.6239C11.9641 10.5433 11.8071 10.5051 11.6502 10.7426C11.4933 10.9801 11.0438 11.506 10.9038 11.6672C10.7681 11.8241 10.6281 11.8453 10.3949 11.7266C9.01228 11.0353 8.10469 10.4924 7.19286 8.92745C6.95112 8.51183 7.4346 8.54152 7.88415 7.64241C7.96049 7.48549 7.92232 7.34978 7.86295 7.23103C7.80357 7.11228 7.33281 5.95446 7.13772 5.4837C6.94688 5.02567 6.75179 5.08929 6.60759 5.0808C6.47188 5.07232 6.31496 5.07232 6.15804 5.07232C6.00112 5.07232 5.74665 5.1317 5.53036 5.36495C5.31406 5.60245 4.70759 6.17076 4.70759 7.32857C4.70759 8.48638 5.55156 9.60603 5.66607 9.76295C5.78482 9.91987 7.32433 12.2949 9.68661 13.317C11.1795 13.9616 11.7647 14.0167 12.5112 13.9065C12.965 13.8386 13.9022 13.3382 14.0973 12.7868C14.2924 12.2355 14.2924 11.7647 14.233 11.6672C14.1779 11.5612 14.021 11.5018 13.7877 11.3873Z" fill="#27AE60"/>
</svg>
