<svg width="141" height="140" viewBox="0 0 141 140" fill="none" xmlns="http://www.w3.org/2000/svg">
<path d="M0.990303 70.0943C0.990303 71.6654 1.04203 73.2365 1.15194 74.7946C1.26831 76.6566 1.46874 78.5057 1.74028 80.3418C2.65285 86.5243 4.39703 92.555 6.92543 98.2701C7.05471 98.5546 7.18402 98.839 7.31336 99.1235L7.50731 99.5502C7.57196 99.6924 7.64308 99.8347 7.70773 99.9705C7.79824 100.158 7.88229 100.339 7.97281 100.52C8.08272 100.746 8.19262 100.973 8.309 101.199C8.32193 101.225 8.33486 101.257 8.35426 101.289C8.45124 101.483 8.54176 101.671 8.6452 101.865C8.66421 101.907 8.68581 101.948 8.70986 101.988C8.81977 102.207 8.93614 102.434 9.05252 102.654C9.18183 102.886 9.30466 103.126 9.43397 103.358C9.7443 103.934 10.0676 104.503 10.3973 105.072C10.4943 105.24 10.5912 105.408 10.6947 105.576C10.7852 105.731 10.8757 105.886 10.9727 106.041C11.0374 106.145 11.102 106.255 11.1667 106.358C11.2701 106.533 11.3735 106.701 11.4835 106.875C11.7227 107.257 11.9683 107.638 12.2076 108.02H12.214C12.3239 108.194 12.4403 108.369 12.5567 108.537V108.543C12.8994 109.061 13.2549 109.578 13.6105 110.089C13.6114 110.089 13.6122 110.089 13.613 110.089C13.6138 110.089 13.6146 110.09 13.6152 110.09C13.6158 110.091 13.6162 110.092 13.6166 110.093C13.6169 110.093 13.617 110.094 13.617 110.095C13.9015 110.509 14.1989 110.91 14.4898 111.311V111.317C14.6838 111.569 14.8713 111.828 15.0652 112.08C15.2204 112.287 15.382 112.5 15.5437 112.707C15.576 112.752 15.6148 112.791 15.6471 112.836V112.843C15.6924 112.901 15.7376 112.953 15.7829 113.011C16.4682 113.89 17.1751 114.75 17.9035 115.591L18.0199 115.726C18.0587 115.772 18.1039 115.817 18.1427 115.869C18.2074 115.94 18.2655 116.011 18.3302 116.082C18.3884 116.153 18.453 116.224 18.5177 116.295C22.3148 120.573 26.6203 124.37 31.3384 127.603C31.9655 128.036 32.6056 128.456 33.2456 128.864C33.4073 128.967 33.5689 129.071 33.7305 129.168C33.7758 129.2 33.8275 129.232 33.8728 129.265C33.9633 129.316 34.0473 129.368 34.1378 129.426C34.2219 129.478 34.3059 129.53 34.3964 129.581C34.7391 129.795 35.0882 130.002 35.4374 130.209C35.5214 130.26 35.6119 130.312 35.7024 130.364C35.7865 130.409 35.877 130.461 35.9675 130.512C35.9675 130.519 35.9675 130.519 35.974 130.519H35.9804V130.525H35.9869C36.4201 130.778 36.8597 131.023 37.3058 131.262C37.545 131.392 37.7907 131.528 38.0364 131.65C38.5924 131.954 39.1549 132.245 39.7174 132.523C39.9178 132.62 40.1247 132.717 40.3251 132.821C40.4932 132.898 40.6613 132.982 40.8294 133.06C40.8811 133.086 40.9264 133.105 40.9717 133.131C41.1139 133.196 41.2497 133.26 41.3919 133.325C41.5471 133.396 41.7022 133.467 41.8509 133.538C42.0255 133.616 42.1936 133.693 42.3682 133.765C43.0147 134.055 43.6677 134.333 44.3207 134.599C46.6608 135.558 49.0523 136.387 51.4842 137.081C51.5941 137.114 51.7105 137.146 51.8269 137.178C52.8678 137.469 53.9152 137.734 54.969 137.973C56.8116 138.4 58.6715 138.749 60.5486 139.021H60.5615C60.7878 139.053 61.0076 139.085 61.2339 139.118C61.2533 139.118 61.2727 139.124 61.2985 139.124C61.2985 139.131 61.2985 139.131 61.305 139.124C61.5507 139.157 61.8028 139.189 62.0485 139.221C62.0653 139.226 62.0828 139.228 62.1003 139.228C62.333 139.26 62.5722 139.286 62.805 139.312C63.0571 139.338 63.3092 139.363 63.5614 139.389C63.7554 139.409 63.9493 139.428 64.1433 139.447C64.1599 139.453 64.1775 139.455 64.195 139.454C64.3696 139.467 64.5441 139.486 64.7187 139.499H64.7446C64.8933 139.512 65.0484 139.525 65.1971 139.538C67.0009 139.68 68.8112 139.745 70.6474 139.745C72.6322 139.745 74.6041 139.667 76.5502 139.499H76.5696C76.9898 139.46 77.4036 139.422 77.8174 139.383C77.9273 139.37 78.0307 139.363 78.1406 139.35C78.16 139.35 78.1859 139.344 78.2053 139.344C78.2376 139.338 78.2699 139.338 78.3087 139.331C78.3262 139.332 78.3437 139.33 78.3605 139.325C78.5027 139.312 78.6449 139.292 78.7936 139.279L79.2785 139.221C79.4401 139.202 79.6018 139.176 79.7634 139.157C79.8022 139.15 79.8345 139.15 79.8733 139.144C79.9897 139.131 80.1061 139.111 80.2225 139.092C80.2806 139.085 80.3388 139.079 80.3905 139.073C80.5069 139.053 80.6168 139.04 80.7332 139.021H80.7397C84.2874 138.51 87.7895 137.721 91.2134 136.661C91.3945 136.603 91.5755 136.551 91.7565 136.493C91.763 136.493 91.7694 136.486 91.7759 136.486C91.8276 136.467 91.8858 136.454 91.9375 136.435C92.4224 136.28 92.9009 136.118 93.3793 135.95C94.0388 135.73 94.6918 135.491 95.3448 135.245C95.5193 135.174 95.6939 135.109 95.8684 135.038C96.224 134.902 96.5732 134.76 96.9223 134.618C97.5171 134.379 98.1119 134.127 98.7002 133.868C99.2498 133.622 99.7929 133.377 100.336 133.118C100.349 133.112 100.368 133.112 100.381 133.099C100.504 133.04 100.627 132.982 100.743 132.924H100.75C103.727 131.495 106.599 129.855 109.342 128.017C110.221 127.429 111.088 126.821 111.941 126.194C112.626 125.683 113.299 125.166 113.971 124.636C117.288 121.997 120.359 119.063 123.146 115.869V115.862C123.346 115.642 123.533 115.416 123.727 115.19C123.76 115.157 123.786 115.125 123.811 115.099C123.934 114.951 124.051 114.808 124.174 114.666V114.66C124.335 114.472 124.497 114.278 124.652 114.084C124.691 114.039 124.723 114 124.755 113.961V113.955C124.885 113.8 125.007 113.645 125.137 113.483C125.201 113.405 125.26 113.328 125.324 113.25V113.244C125.706 112.765 126.074 112.287 126.443 111.795C126.54 111.666 126.637 111.53 126.74 111.395C127.206 110.767 127.658 110.127 128.098 109.487V109.481C128.266 109.242 128.428 108.996 128.596 108.757C128.757 108.511 128.919 108.265 129.081 108.02C129.242 107.761 129.41 107.509 129.572 107.25L129.591 107.212C129.753 106.966 129.915 106.707 130.07 106.455C130.193 106.248 130.316 106.048 130.438 105.847C130.516 105.712 130.6 105.576 130.678 105.434C130.708 105.39 130.736 105.345 130.762 105.298C130.943 104.981 131.124 104.664 131.305 104.348C131.518 103.979 131.725 103.604 131.932 103.229C132.009 103.074 132.093 102.919 132.178 102.764C132.21 102.712 132.236 102.66 132.262 102.608C132.359 102.427 132.456 102.24 132.546 102.052C132.643 101.871 132.74 101.684 132.837 101.496C132.927 101.315 133.024 101.128 133.115 100.94C133.186 100.798 133.251 100.656 133.322 100.514C133.327 100.502 133.333 100.491 133.341 100.481C133.374 100.41 133.406 100.346 133.432 100.281C133.44 100.271 133.446 100.26 133.451 100.249C133.522 100.106 133.587 99.9576 133.658 99.8153C133.749 99.6279 133.833 99.4339 133.923 99.2464C133.981 99.1171 134.046 98.9813 134.104 98.8456C134.188 98.6581 134.279 98.4706 134.356 98.2766C134.447 98.0826 134.531 97.8887 134.615 97.6883C134.639 97.6399 134.661 97.5903 134.68 97.5396C134.725 97.4491 134.757 97.3585 134.796 97.268C134.899 97.0288 135.003 96.7831 135.1 96.5439C135.216 96.2724 135.326 95.9944 135.43 95.7228C135.533 95.4707 135.63 95.2121 135.727 94.9535L135.766 94.863C137.272 90.8952 138.415 86.7988 139.179 82.6242V82.6177C139.611 80.2343 139.919 77.8304 140.104 75.4153C140.11 75.2796 140.123 75.1503 140.13 75.021C140.246 73.3852 140.298 71.7431 140.298 70.0944C140.298 69.3638 140.285 68.6397 140.266 67.9156C139.814 52.7716 134.414 38.1923 124.891 26.4085C124.684 26.1498 124.477 25.8912 124.264 25.6326C124.051 25.374 123.831 25.1219 123.617 24.8697C116.53 16.5697 107.591 10.0511 97.5225 5.8394C87.4534 1.62776 76.5357 -0.159099 65.6494 0.622897C54.7631 1.40489 44.2129 4.73387 34.8492 10.3414C25.4856 15.949 17.5705 23.6782 11.7421 32.9061C11.4253 33.4104 11.1085 33.9211 10.8046 34.4319C10.4943 34.9491 10.1969 35.4664 9.89949 35.9901C4.04235 46.4012 0.973525 58.1487 0.990303 70.0943Z" fill="#F2F2F2"/>
<path d="M36.5282 131.196C37.1154 131.517 37.7095 131.825 38.3036 132.118C38.5152 132.221 38.7338 132.323 38.9454 132.432C39.123 132.514 39.3005 132.603 39.478 132.685C39.5327 132.712 39.5805 132.733 39.6283 132.76C39.7785 132.828 39.9219 132.897 40.0721 132.965C40.236 133.04 40.3999 133.115 40.5569 133.19C40.7413 133.272 40.9188 133.354 41.1032 133.429C41.786 133.736 42.4757 134.03 43.1653 134.31C45.6369 135.323 48.1627 136.199 50.7311 136.932C50.8472 136.966 50.9701 137 51.093 137.035C52.1924 137.342 53.2986 137.622 54.4116 137.874C56.3577 138.325 58.322 138.694 60.3044 138.981H60.3181C60.5571 139.015 60.7893 139.049 61.0282 139.083C61.0487 139.083 61.0692 139.09 61.0965 139.09C61.0965 139.097 61.0965 139.097 61.1033 139.09C61.3628 139.124 61.6291 139.158 61.8886 139.192C61.9063 139.198 61.9248 139.2 61.9432 139.199C62.1891 139.233 62.4417 139.261 62.6875 139.288C62.9538 139.315 63.2201 139.343 63.4864 139.37C63.6913 139.39 63.8961 139.411 64.101 139.431C64.1185 139.437 64.1371 139.44 64.1556 139.438C64.34 139.452 64.5243 139.472 64.7087 139.486H64.736C64.8931 139.5 65.057 139.513 65.214 139.527C67.1191 139.677 69.031 139.745 70.9703 139.745C73.0666 139.745 75.1492 139.663 77.2045 139.486H77.225C77.6688 139.445 78.1059 139.404 78.5429 139.363C78.659 139.349 78.7682 139.342 78.8843 139.329C78.9048 139.329 78.9321 139.322 78.9526 139.322C78.9867 139.315 79.0209 139.315 79.0618 139.308C79.0803 139.309 79.0987 139.307 79.1164 139.302C79.2667 139.288 79.4169 139.267 79.574 139.254L80.0861 139.192C80.2568 139.172 80.4275 139.144 80.5982 139.124C80.6392 139.117 80.6733 139.117 80.7143 139.11C80.8372 139.097 80.9601 139.076 81.083 139.056C81.1445 139.049 81.2059 139.042 81.2605 139.035C81.3835 139.015 81.4995 139.001 81.6224 138.981H81.6293C85.3762 138.441 89.0749 137.608 92.6911 136.488C92.8823 136.427 93.0735 136.372 93.2647 136.311C92.3831 132.199 90.568 128.345 87.9596 125.046C85.3513 121.748 82.0196 119.093 78.2219 117.287C79.1613 116.392 79.8106 115.236 80.0861 113.968C80.2634 113.151 80.2774 112.307 80.1274 111.485C79.9774 110.662 79.6663 109.877 79.2121 109.175C78.326 107.814 76.9358 106.861 75.3472 106.526L65.2277 104.409C63.5986 104.091 61.9101 104.43 60.5291 105.35C59.1482 106.271 58.1865 107.699 57.8531 109.325C57.7498 109.824 57.704 110.332 57.7165 110.841C47.9725 117.328 40.9598 124.054 36.5282 131.196Z" fill="#6C63FF"/>
<path d="M66.4077 100.411C78.0514 100.411 87.4905 90.9721 87.4905 79.3284C87.4905 67.6847 78.0514 58.2456 66.4077 58.2456C54.764 58.2456 45.3249 67.6847 45.3249 79.3284C45.3249 90.9721 54.764 100.411 66.4077 100.411Z" fill="#FFB8B8"/>
<path d="M53.2658 97.5054C51.0176 95.9696 48.7217 93.0185 47.189 90.8067C45.158 87.8994 43.7605 84.5977 43.0871 81.1157C42.4137 77.6337 42.4794 74.0491 43.28 70.5941C43.5353 69.2127 44.1628 67.9272 45.0948 66.876C46.0878 65.8934 47.7096 65.4275 48.9215 66.1224C48.5908 65.2367 48.4451 64.2926 48.4934 63.3484C48.5418 62.4043 48.7831 61.48 49.2025 60.6327C50.0543 58.9409 51.2886 57.4709 52.8075 56.3391C55.7122 54.1023 59.1683 52.6937 62.809 52.2626C66.4497 51.8316 70.1392 52.3943 73.4859 53.8909C74.8029 54.5012 72.6398 49.7882 74.0183 50.2427C75.3876 50.7729 76.91 50.7462 78.2598 50.1682C79.5562 49.5156 83.8534 53.3929 83.3562 52.0293C84.34 52.476 85.1948 53.1644 85.841 54.0304C86.4871 54.8965 86.9036 55.9119 87.0516 56.9822C87.1996 58.0526 87.0744 59.1429 86.6875 60.1518C86.3007 61.1607 85.6648 62.0552 84.8391 62.7522C83.751 63.6706 82.3925 64.1995 81.2011 64.9793C79.1138 66.4479 77.6363 68.6298 77.0476 71.1132C76.459 73.5965 76.8 76.2095 78.0062 78.4587C76.7527 77.6533 75.3774 77.0557 73.9333 76.6888C73.2089 76.512 72.4527 76.5107 71.7276 76.6851C71.0026 76.8595 70.3296 77.2045 69.7648 77.6914C69.2929 78.2315 68.9363 78.8624 68.7171 79.5453C68.4978 80.2282 68.4205 80.9488 68.4899 81.6627C68.5371 83.0934 68.8775 84.5029 68.9157 85.9339C69.0278 90.1327 71.2765 98.1156 68.021 100.347C65.4519 102.109 56.3355 99.6022 53.2658 97.5054Z" fill="#2F2E41"/>
</svg>
